<svg xmlns="http://www.w3.org/2000/svg" viewBox="0 0 24 24">
    <path fill="#744646" d="M1.969 24c2.594 0 5.328-4.294 6.717-6.883 1.067-.361 2.133-.689 3.198-1.018a35.499 35.499 0 0 1 3.41-.768c2.739 2.512 5.154 2.91 6.368 2.91 1.494 0 2.027-.619 2.206-1.126.28-.652.07-1.375-.252-1.746l.02.04-.003-.005c-.711-.763-2.167-1.201-4.231-1.201-1.102 0-2.379.11-3.766.371a20.46 20.46 0 0 1-2.311-2.729 23.257 23.257 0 0 1-1.422-2.298c.814-2.548 1.208-4.625 1.208-6.12C13.112 1.75 12.509 0 10.769 0c-.534 0-1.068.326-1.352.803-.784 1.413-.431 4.508.918 7.565a71.329 71.329 0 0 1-1.703 4.62 55.918 55.918 0 0 1-1.926 4.11c-3.91 1.589-6.44 3.445-6.677 4.9-.104.549.074 1.054.458 1.455.133.111.637.547 1.482.547zm17.361-9.065c.741 0 1.382.032 1.813.144.491.106 1.272.436 1.097 1.385h.006c-.105.545-.639.907-1.387.907-.21 0-.391-.037-.604-.072-1.362-.326-2.637-1.019-3.909-2.113a17.677 17.677 0 0 1 2.984-.251zm-4.618-.186a.036.036 0 0 1-.011.002v-.008l.011.006zM10.057 1.22l-.002-.001a.777.777 0 0 1 .679-.437c.746 0 .888.871.888 1.565 0 1.172-.355 2.952-.961 4.984-1.064-2.83-1.137-5.198-.604-6.111zm.392 12.385c.429-1.023.781-2.077 1.137-3.056.35.612.741 1.234 1.132 1.786a27.48 27.48 0 0 0 1.975 2.418c-.916.19-1.905.413-2.929.691-.817.224-1.668.476-2.524.773.463-.905.855-1.78 1.209-2.612zM.747 22.176c.213-1.093 2.239-2.621 5.399-4.003-1.813 3.053-3.553 4.949-4.62 4.949a.865.865 0 0 1-.531-.184c-.214-.216-.32-.473-.248-.762z"/>
</svg>